<svg width="70" height="62" viewBox="0 0 70 62" fill="none" xmlns="http://www.w3.org/2000/svg">
<path d="M13.5938 51.2969C13.5938 52.599 13.9714 53.7057 14.7266 54.6172C15.5078 55.5807 16.3411 56.0365 17.2266 55.9844C18.138 55.9323 19.3229 55.5417 20.7812 54.8125V15.2031C20.7812 13.224 20.5859 11.8177 20.1953 10.9844C19.8047 10.125 18.9453 9.69531 17.6172 9.69531V7.19531L33.9844 0.320312L35.2734 2.89844C34.1016 2.89844 33.0078 3.58854 31.9922 4.96875C30.9766 6.29688 30.4688 8.3151 30.4688 11.0234V54.5781C30.4688 54.7604 29.9089 55.138 28.7891 55.7109C27.6693 56.2578 26.25 56.8828 24.5312 57.5859C22.8125 58.2891 21.0286 58.9792 19.1797 59.6562C17.3307 60.3333 15.651 60.8932 14.1406 61.3359C12.6302 61.7786 11.5495 62 10.8984 62C9.80469 62 8.72396 61.401 7.65625 60.2031C6.58854 58.9792 5.70312 57.5599 5 55.9453C4.32292 54.3047 3.98438 52.8594 3.98438 51.6094V12.1562C3.98438 9.1875 2.68229 7.45573 0.078125 6.96094V5.20312L8.78906 0.320312C9.96094 0.789062 11.0547 1.57031 12.0703 2.66406C13.0859 3.75781 13.5938 4.78646 13.5938 5.75V51.2969ZM48.0469 51.2969C48.0469 52.599 48.4245 53.7057 49.1797 54.6172C49.9609 55.5807 50.7943 56.0365 51.6797 55.9844C52.5911 55.9323 53.776 55.5417 55.2344 54.8125V15.2031C55.2344 13.224 55.0391 11.8177 54.6484 10.9844C54.2578 10.125 53.3984 9.69531 52.0703 9.69531V7.19531L68.4375 0.320312L69.7266 2.89844C68.5547 2.89844 67.4609 3.58854 66.4453 4.96875C65.4297 6.29688 64.9219 8.3151 64.9219 11.0234V54.5781C64.9219 54.7604 64.362 55.138 63.2422 55.7109C62.1224 56.2578 60.7031 56.8828 58.9844 57.5859C57.2656 58.2891 55.4818 58.9792 53.6328 59.6562C51.7839 60.3333 50.1042 60.8932 48.5938 61.3359C47.0833 61.7786 46.0026 62 45.3516 62C44.2578 62 43.1771 61.401 42.1094 60.2031C41.0417 58.9792 40.1562 57.5599 39.4531 55.9453C38.776 54.3047 38.4375 52.8594 38.4375 51.6094V12.1562C38.4375 9.1875 37.1354 7.45573 34.5312 6.96094V5.20312L43.2422 0.320312C44.4141 0.789062 45.5078 1.57031 46.5234 2.66406C47.5391 3.75781 48.0469 4.78646 48.0469 5.75V51.2969Z" fill="black"/>
</svg>
