<svg width="115" height="130" viewBox="0 0 115 130" fill="none" xmlns="http://www.w3.org/2000/svg">
<path fill-rule="evenodd" clip-rule="evenodd" d="M4.51074 36.9301V103.895C6.04211 103.861 10.3411 102.666 12.4028 102.494L12.1205 116.224C12.1205 116.87 12.3173 117.064 12.9653 117.064H31.5684V128.55C31.5684 129.186 31.7588 129.386 32.3833 129.39H32.4133H68.7725V93.5271C68.7725 92.079 71.8994 84.8622 72.6415 83.0846C73.5548 80.8923 73.2832 79.5974 73.2832 76.7162C73.2832 74.2879 73.2832 71.8596 73.2832 69.4313L86.8601 73.5883C87.7285 73.8562 88.5049 73.8328 88.5049 74.7557C88.5049 84.8941 89.4801 84.0308 86.2506 92.1258C85.9191 92.9572 83.9963 97.9754 83.9963 98.5708V117.064H99.2159V129.392H114.718C114.718 121.406 115 114.212 115 106.417V36.6515L75.8818 24.2635C72.3165 23.2853 73.3944 22.9728 69.1275 23.8318L32.9586 30.7446C28.1571 31.7014 23.2144 32.5647 18.5369 33.5003L7.65262 35.5692C6.63029 35.7351 4.51502 35.8074 4.51502 36.9322L4.51074 36.9301Z" fill="black"/>
<path fill-rule="evenodd" clip-rule="evenodd" d="M71.5913 94.0883V129.392H96.3947V119.866H81.1752V98.292C81.1752 96.978 82.2724 94.6305 82.7472 93.41C86.2804 84.3049 85.6837 86.3377 85.6837 76.1568C84.6379 76.0696 81.9366 75.1212 80.8587 74.7895C79.3465 74.3239 77.5885 73.6987 76.102 73.3542C76.102 78.3682 76.6239 81.3174 75.1353 85.0024C74.5599 86.4249 71.5913 93.1229 71.5913 94.0883Z" fill="black"/>
<path fill-rule="evenodd" clip-rule="evenodd" d="M0 107.537V129.111L23.1352 129.39H28.7516L29.0574 121.522C29.0617 120.478 29.2756 119.585 28.187 119.585H9.58388V105.855L0.00214087 107.537H0Z" fill="black"/>
<path fill-rule="evenodd" clip-rule="evenodd" d="M73.5632 21.5204L79.7999 23.4468C81.7526 24.0975 84.0176 24.9927 85.9639 25.4435C86.6333 24.1868 88.4983 21.6139 88.7828 20.3998C88.2416 20.1404 77.227 16.4767 77.227 16.4767C76.3479 16.4767 73.9995 20.6975 73.5632 21.5204Z" fill="black"/>
<path fill-rule="evenodd" clip-rule="evenodd" d="M82.5825 16.196C83.3503 16.6001 84.0241 16.9467 85.1191 17.036C85.7607 14.3015 93.1353 2.38543 93.2935 0.505737H92.4487C92.1578 1.58592 88.4577 6.93368 87.6022 8.29667L82.5847 16.196H82.5825Z" fill="black"/>
<path fill-rule="evenodd" clip-rule="evenodd" d="M42.2175 87.0841L36.3145 88.5257L38.8874 83.9902L42.2175 87.0841Z" fill="white" stroke="white" stroke-width="0.288" stroke-miterlimit="2.61313"/>
<path fill-rule="evenodd" clip-rule="evenodd" d="M30.8092 56.8092L25.7574 63.2116L22.4701 60.3772L18.1712 61.1767L18.6075 64.3322L13.8337 59.7712L22.3204 58.2913L30.8092 56.8092Z" fill="white"/>
<path fill-rule="evenodd" clip-rule="evenodd" d="M66.1076 49.8708L61.0558 56.2754L57.7706 53.4389L53.4695 54.2384L53.9058 57.396L49.1321 52.835L57.6209 51.3529L66.1076 49.8708Z" fill="white"/>
</svg>
