<svg width="372" height="71" viewBox="0 0 372 71" fill="none" xmlns="http://www.w3.org/2000/svg">
<path d="M27.182 22.073C27.4293 22.815 27.4823 23.8043 27.341 25.041C27.1997 26.2777 26.9877 28.0267 26.705 30.288C26.3163 33.15 26.0337 35.853 25.857 38.397C25.6803 40.941 25.5567 43.22 25.486 45.234C25.38 47.566 25.3447 49.739 25.38 51.753L25.168 52.283L24.85 52.23L24.532 53.873L24.161 53.82L23.79 53.714L23.048 56.947L22.465 56.47L22.2 56.947L21.564 57L21.458 57.424C21.3873 57.7067 21.299 57.848 21.193 57.848C21.1223 57.8833 20.9987 57.901 20.822 57.901C20.2213 56.417 19.7267 54.6857 19.338 52.707C18.9847 50.693 18.702 48.5377 18.49 46.241C18.278 46.3823 18.0483 46.4883 17.801 46.559C17.271 46.559 16.635 46.612 15.893 46.718C15.151 46.7887 14.356 46.8947 13.508 47.036C12.66 47.1773 11.7943 47.3187 10.911 47.46C10.063 47.6013 9.268 47.7427 8.526 47.884C8.45533 48.4847 8.40233 49.0147 8.367 49.474C8.367 49.9333 8.34933 50.3397 8.314 50.693C8.27867 51.0817 8.261 51.435 8.261 51.753L7.89 51.276L7.625 52.654L6.989 52.813L6.3 54.827L4.763 55.781L3.862 57.053L3.385 56.735L2.961 58.166C2.89033 58.272 2.802 58.378 2.696 58.484C2.484 58.696 2.34267 58.802 2.272 58.802C2.23667 58.5193 2.20133 57.848 2.166 56.788C2.13067 55.728 2.07767 54.4207 2.007 52.866C1.97167 51.276 1.93633 49.4917 1.901 47.513C1.86567 45.5343 1.81267 43.5027 1.742 41.418C1.70667 39.298 1.65367 37.1957 1.583 35.111C1.51233 32.991 1.424 31.0123 1.318 29.175C1.212 27.3377 1.106 25.7123 1 24.299C0.858667 22.8503 0.717333 21.7373 0.576 20.96C0.540667 20.854 0.593667 20.7127 0.735 20.536C0.841 20.324 1.03533 20.1827 1.318 20.112C1.70667 20.006 2.18367 19.9 2.749 19.794C3.31433 19.688 3.915 19.6527 4.551 19.688C5.187 19.7233 5.80533 19.8823 6.406 20.165C7.042 20.4477 7.60733 20.907 8.102 21.543C8.59667 22.179 8.96767 23.027 9.215 24.087C9.49767 25.147 9.62133 26.4897 9.586 28.115C9.51533 30.1643 9.427 32.249 9.321 34.369C9.25033 36.4537 9.162 38.4677 9.056 40.411C10.54 40.2343 12.0593 40.146 13.614 40.146C15.204 40.1107 16.7057 40.1637 18.119 40.305C18.013 38.2203 17.96 36.171 17.96 34.157C17.9953 32.1077 18.0307 30.2173 18.066 28.486C18.1367 26.7193 18.225 25.147 18.331 23.769C18.4723 22.391 18.596 21.331 18.702 20.589C19.2673 20.3417 19.9917 20.165 20.875 20.059C21.7583 19.953 22.624 19.953 23.472 20.059C24.3553 20.1297 25.1327 20.324 25.804 20.642C26.5107 20.96 26.97 21.437 27.182 22.073ZM32.8025 33.362C32.7672 31.5247 32.8202 29.8817 32.9615 28.433C33.1382 26.949 33.3325 25.6947 33.5445 24.67C33.7918 23.6453 34.0392 22.8503 34.2865 22.285C34.5692 21.6843 34.7812 21.3487 34.9225 21.278C35.4525 21.0307 36.0885 20.9777 36.8305 21.119C37.5725 21.2603 38.2615 21.49 38.8975 21.808C39.5335 22.126 40.0635 22.4793 40.4875 22.868C40.9115 23.2567 41.0882 23.5923 41.0175 23.875C40.1342 27.5497 39.6925 30.5 39.6925 32.726C39.7278 34.9167 39.9575 36.6127 40.3815 37.814C40.8055 39.0153 41.2825 39.8103 41.8125 40.199C42.3778 40.5877 42.7312 40.782 42.8725 40.782C43.1198 40.8173 43.5085 40.6937 44.0385 40.411C44.6038 40.1283 45.1515 39.6513 45.6815 38.98C46.2468 38.3087 46.7238 37.443 47.1125 36.383C47.5365 35.323 47.7485 34.0157 47.7485 32.461C47.7485 30.6237 47.6602 29.1043 47.4835 27.903C47.3068 26.6663 47.1125 25.6947 46.9005 24.988C46.6532 24.14 46.3882 23.504 46.1055 23.08L45.8935 23.027C45.9995 22.9917 46.0878 22.9563 46.1585 22.921C46.2998 22.8503 46.3528 22.762 46.3175 22.656C46.2822 22.6207 46.2115 22.5677 46.1055 22.497C46.0348 22.4263 45.9995 22.3557 45.9995 22.285C45.9995 22.2143 46.0348 22.1083 46.1055 21.967C46.1762 21.7903 46.3528 21.649 46.6355 21.543C47.3068 21.2603 48.0665 21.2603 48.9145 21.543C49.7625 21.7903 50.5575 22.3733 51.2995 23.292C52.0415 24.1753 52.6598 25.412 53.1545 27.002C53.6845 28.5567 53.9318 30.4823 53.8965 32.779C53.8612 34.7577 53.5962 36.6303 53.1015 38.397C52.6422 40.1283 51.9708 41.6477 51.0875 42.955C50.2042 44.2623 49.1265 45.3047 47.8545 46.082C46.6178 46.824 45.2398 47.1773 43.7205 47.142C41.9892 47.1067 40.4522 46.6473 39.1095 45.764C37.7668 44.8453 36.6362 43.7147 35.7175 42.372C34.7988 40.994 34.0922 39.51 33.5975 37.92C33.1028 36.2947 32.8378 34.7753 32.8025 33.362ZM33.9685 50.64C34.8518 50.11 35.8942 49.7037 37.0955 49.421C38.3322 49.103 39.6042 48.9087 40.9115 48.838C42.2542 48.732 43.5792 48.7143 44.8865 48.785C46.2292 48.8557 47.4482 49.0147 48.5435 49.262C49.6742 49.474 50.6282 49.7743 51.4055 50.163C52.2182 50.5163 52.7482 50.9227 52.9955 51.382C52.9955 51.382 52.9602 51.382 52.8895 51.382C52.8542 51.382 52.8012 51.3643 52.7305 51.329L53.4195 52.177L52.9955 52.283C53.1368 52.495 53.2782 52.6893 53.4195 52.866C53.5255 53.0427 53.6138 53.2193 53.6845 53.396C53.7552 53.5727 53.7728 53.6963 53.7375 53.767C53.6315 54.0143 53.5078 54.4207 53.3665 54.986C53.2958 55.2687 53.2252 55.569 53.1545 55.887L52.6775 55.622C51.2995 55.4453 49.9038 55.3923 48.4905 55.463C47.1125 55.5337 45.7522 55.675 44.4095 55.887C43.0668 56.099 41.7772 56.3817 40.5405 56.735C39.3038 57.053 38.1378 57.3887 37.0425 57.742C36.1592 58.0247 35.4348 57.9717 34.8695 57.583C34.3042 57.1943 33.8802 56.629 33.5975 55.887C33.3502 55.145 33.2442 54.297 33.2795 53.343C33.3502 52.389 33.5798 51.488 33.9685 50.64ZM82.9935 20.642C83.9828 20.7833 84.7602 21.0837 85.3255 21.543C85.9262 22.0023 86.3502 22.497 86.5975 23.027C86.8802 23.557 87.0391 24.0517 87.0745 24.511C87.1452 24.9703 87.1805 25.2707 87.1805 25.412C87.1452 25.518 86.9862 26.101 86.7035 27.161C86.4208 28.1857 86.0675 29.5637 85.6435 31.295C85.2548 33.0263 84.8308 35.0403 84.3715 37.337C83.9475 39.5983 83.5765 42.0187 83.2585 44.598C82.9758 47.142 82.7815 49.792 82.6755 52.548C82.5695 55.304 82.6578 58.007 82.9405 60.657C82.8698 61.0457 82.8168 61.4167 82.7815 61.77C82.7462 62.1233 82.7108 62.459 82.6755 62.777C82.6755 62.8123 82.6225 62.5297 82.5165 61.929C82.4458 61.3637 82.3575 60.7277 82.2515 60.021L81.8275 57.159C81.9335 58.431 82.0395 59.544 82.1455 60.498C82.2162 61.346 82.2868 62.1057 82.3575 62.777C82.4282 63.4837 82.4635 63.8547 82.4635 63.89C82.4282 64.5613 82.3752 65.215 82.3045 65.851C82.3045 65.8863 82.2692 65.745 82.1985 65.427C82.1632 65.1443 82.1455 65.0207 82.1455 65.056C82.1455 65.1267 82.1632 65.374 82.1985 65.798C82.2338 66.222 82.2515 66.4693 82.2515 66.54C82.1808 67.6 82.1632 68.3243 82.1985 68.713C82.2692 69.1017 82.3045 69.3667 82.3045 69.508C82.3045 69.5787 82.2692 69.5787 82.1985 69.508C82.1632 69.4727 82.1102 69.4197 82.0395 69.349C82.0395 69.455 81.9865 69.614 81.8805 69.826C81.7745 70.038 81.6862 70.1793 81.6155 70.25C81.2268 70.4973 80.8205 70.6563 80.3965 70.727C80.0078 70.833 79.7252 70.727 79.5485 70.409C78.4532 68.289 77.5875 66.0807 76.9515 63.784C76.3155 61.4873 75.8562 59.173 75.5735 56.841C75.2908 54.4737 75.1318 52.124 75.0965 49.792C75.0965 47.4247 75.1848 45.1103 75.3615 42.849C74.7608 44.4743 74.1955 46.0113 73.6655 47.46C73.1708 48.8733 72.6938 50.1453 72.2345 51.276C71.8105 52.3713 71.4218 53.29 71.0685 54.032C70.7152 54.7387 70.3971 55.198 70.1145 55.41C69.7258 55.6927 69.2312 55.8517 68.6305 55.887C68.0651 55.9223 67.4291 55.9047 66.7225 55.834C65.4152 55.6573 64.3375 55.1627 63.4895 54.35C62.6768 53.502 62.0231 52.442 61.5285 51.17C61.0691 49.898 60.7158 48.467 60.4685 46.877C60.2565 45.2517 60.1151 43.5733 60.0445 41.842C59.9738 40.0753 59.9385 38.3087 59.9385 36.542C59.9385 34.74 59.9208 33.044 59.8855 31.454C59.8501 29.864 59.7441 28.433 59.5675 27.161C59.4261 25.8537 59.1435 24.7937 58.7195 23.981C58.5781 23.6983 58.4015 23.451 58.1895 23.239C58.0835 23.133 57.9775 23.0447 57.8715 22.974C57.8715 21.9493 58.2248 21.278 58.9315 20.96C59.6735 20.6067 60.6981 20.5183 62.0055 20.695C63.7015 20.907 64.8851 21.49 65.5565 22.444C66.2631 23.3627 66.7225 24.7053 66.9345 26.472C67.1465 28.2387 67.2171 30.447 67.1465 33.097C67.1112 35.7117 67.1995 38.821 67.4115 42.425C67.5528 42.425 67.8355 42.0893 68.2595 41.418C68.6835 40.7467 69.1958 39.8457 69.7965 38.715C70.3972 37.5843 71.0508 36.33 71.7575 34.952C72.4995 33.574 73.2415 32.1783 73.9835 30.765C74.7255 29.3517 75.4498 28.0267 76.1565 26.79C76.8632 25.5533 77.4992 24.511 78.0645 23.663C78.0998 23.4863 78.1175 23.345 78.1175 23.239C78.1175 23.0977 78.1352 22.9387 78.1705 22.762C78.2412 22.1613 78.4708 21.702 78.8595 21.384C79.2835 21.066 79.7428 20.854 80.2375 20.748C80.7322 20.6067 81.2268 20.5537 81.7215 20.589C82.2515 20.589 82.6755 20.6067 82.9935 20.642ZM105.744 5.166C105.708 5.378 105.973 5.802 106.539 6.438C107.139 7.074 107.881 7.72766 108.765 8.399C109.648 9.07033 110.602 9.671 111.627 10.201C112.687 10.731 113.676 10.996 114.595 10.996C115.019 10.9253 115.443 10.8193 115.867 10.678C116.291 10.5013 116.662 10.2717 116.98 9.989C117.298 9.70633 117.492 9.37066 117.563 8.982C117.669 8.59333 117.563 8.134 117.245 7.604C117.245 7.56866 116.98 7.35666 116.45 6.968C115.92 6.544 115.301 6.014 114.595 5.378C113.923 4.742 113.217 4.01766 112.475 3.20499C111.768 2.357 111.22 1.49133 110.832 0.607999C110.125 0.466664 109.471 0.537329 108.871 0.819997C108.27 1.06733 107.74 1.45599 107.281 1.98599C106.857 2.516 106.521 3.06367 106.274 3.629C106.026 4.19433 105.85 4.70666 105.744 5.166ZM98.7477 47.619C100.55 47.0537 102.458 46.506 104.472 45.976C106.521 45.446 108.57 45.0043 110.62 44.651C112.669 44.2977 114.648 44.0857 116.556 44.015C118.464 43.909 120.177 43.9973 121.697 44.28C121.697 44.386 121.644 44.5097 121.538 44.651C121.432 44.7923 121.308 44.9337 121.167 45.075C121.025 45.2163 120.866 45.393 120.69 45.605L120.425 46.241L118.411 47.195L119.895 47.354C119.612 47.46 119.329 47.5837 119.047 47.725C118.799 47.831 118.534 47.9723 118.252 48.149C118.004 48.2903 117.775 48.4493 117.563 48.626C117.103 48.9793 116.768 49.315 116.556 49.633C116.344 49.951 116.061 50.1807 115.708 50.322C115.566 50.322 114.824 50.481 113.482 50.799C112.139 51.117 110.408 51.594 108.288 52.23C106.203 52.866 103.836 53.661 101.186 54.615C98.5711 55.569 95.9387 56.6997 93.2887 58.007C92.8647 58.219 92.4054 58.007 91.9107 57.371C91.4161 56.735 91.0097 55.9753 90.6917 55.092C90.3737 54.1733 90.2324 53.2723 90.2677 52.389C90.2677 51.4703 90.6034 50.8343 91.2747 50.481C91.5221 50.3397 91.8931 50.1807 92.3877 50.004C92.3877 48.4847 92.3877 46.8063 92.3877 44.969C92.4231 43.1317 92.4407 41.259 92.4407 39.351C92.4407 37.443 92.4231 35.5527 92.3877 33.68C92.3877 31.8073 92.3524 30.076 92.2817 28.486C92.2464 26.8607 92.1757 25.4473 92.0697 24.246C91.9637 23.0447 91.8401 22.1613 91.6987 21.596C92.0874 21.49 92.5114 21.3663 92.9707 21.225C93.3594 21.1543 93.8011 21.0837 94.2957 21.013C94.8257 20.907 95.3557 20.8893 95.8857 20.96C97.2991 20.7833 99.0304 20.6597 101.08 20.589C103.129 20.5183 105.196 20.483 107.281 20.483C109.365 20.4477 111.309 20.4477 113.111 20.483C114.913 20.5183 116.238 20.536 117.086 20.536C117.05 20.642 117.033 20.7657 117.033 20.907C117.033 21.0483 117.033 21.2073 117.033 21.384V21.914C116.821 21.9847 116.626 22.0907 116.45 22.232C116.273 22.338 116.096 22.4617 115.92 22.603C115.743 22.7443 115.566 22.9033 115.39 23.08C115.319 23.1507 115.213 23.239 115.072 23.345C114.966 23.4157 114.842 23.504 114.701 23.61C114.559 23.7513 114.383 23.875 114.171 23.981L115.231 24.034L113.482 24.935L113.429 25.571C113.04 25.7477 112.669 25.9067 112.316 26.048C112.033 26.1893 111.75 26.313 111.468 26.419C111.22 26.4897 111.061 26.5427 110.991 26.578C110.92 26.578 110.549 26.631 109.878 26.737C109.242 26.843 108.429 26.9843 107.44 27.161C106.486 27.3023 105.408 27.479 104.207 27.691C103.005 27.8677 101.822 28.0443 100.656 28.221C100.656 28.433 100.638 28.645 100.603 28.857C100.603 29.069 100.603 29.281 100.603 29.493C100.567 30.1997 100.532 30.871 100.497 31.507C100.461 32.143 100.408 32.779 100.338 33.415C101.504 33.2737 102.705 33.15 103.942 33.044C105.214 32.938 106.45 32.8497 107.652 32.779C108.853 32.673 109.966 32.62 110.991 32.62C112.051 32.5847 112.934 32.567 113.641 32.567C113.641 32.7437 113.57 32.9733 113.429 33.256C113.358 33.3973 113.287 33.5387 113.217 33.68L113.005 34.952L111.362 35.853L112.051 35.906L110.302 37.019L110.355 37.549L108.447 38.026L108.076 38.662C107.722 38.8387 107.369 38.9977 107.016 39.139C106.733 39.2803 106.433 39.4217 106.115 39.563C105.832 39.669 105.602 39.7573 105.426 39.828C105.355 39.828 105.125 39.881 104.737 39.987C104.383 40.0577 103.924 40.1813 103.359 40.358C102.793 40.4993 102.175 40.6583 101.504 40.835C100.868 41.0117 100.214 41.1707 99.5427 41.312C99.4014 42.7253 99.2601 43.962 99.1187 45.022C98.9774 46.082 98.8537 46.9477 98.7477 47.619ZM106.486 8.611C104.825 7.975 103.111 7.975 101.345 8.611C101.027 9.49433 100.532 10.36 99.8607 11.208C99.2247 12.0207 98.5711 12.7627 97.8997 13.434C97.2637 14.07 96.6984 14.6 96.2037 15.024C95.7091 15.4127 95.4441 15.6247 95.4087 15.66C95.1614 16.2253 95.1084 16.6847 95.2497 17.038C95.3911 17.3913 95.6207 17.6917 95.9387 17.939C96.2921 18.1863 96.6984 18.3807 97.1577 18.522C97.6171 18.628 98.0941 18.7163 98.5887 18.787C99.5074 18.681 100.479 18.3453 101.504 17.78C102.387 17.3207 103.182 16.8083 103.889 16.243C104.631 16.8083 105.426 17.3207 106.274 17.78C107.334 18.3453 108.323 18.681 109.242 18.787C109.736 18.7163 110.213 18.628 110.673 18.522C111.132 18.3807 111.521 18.1863 111.839 17.939C112.192 17.6917 112.439 17.3913 112.581 17.038C112.722 16.6847 112.669 16.2253 112.422 15.66C112.386 15.6247 112.121 15.4127 111.627 15.024C111.132 14.6 110.549 14.07 109.878 13.434C109.242 12.7627 108.588 12.0207 107.917 11.208C107.281 10.36 106.804 9.49433 106.486 8.611ZM150.574 26.048C150.327 30.5353 150.168 34.3513 150.097 37.496C150.027 40.6407 150.009 43.273 150.044 45.393C150.115 47.513 150.203 49.209 150.309 50.481C150.415 51.7177 150.504 52.707 150.574 53.449C150.68 54.1557 150.751 54.6857 150.786 55.039C150.822 55.357 150.804 55.6397 150.733 55.887C150.592 56.2403 150.327 56.5937 149.938 56.947C149.585 57.3003 149.143 57.6007 148.613 57.848C148.119 58.0953 147.571 58.2367 146.97 58.272C146.405 58.3427 145.84 58.272 145.274 58.06C144.744 57.848 144.25 57.4593 143.79 56.894C143.331 56.2933 142.978 55.4807 142.73 54.456C141.812 53.0427 140.893 51.5057 139.974 49.845C139.056 48.1843 138.137 46.4883 137.218 44.757C136.335 42.9903 135.452 41.2237 134.568 39.457C133.72 37.655 132.872 35.9237 132.024 34.263C131.848 36.5597 131.671 38.768 131.494 40.888C131.318 43.008 131.141 44.8983 130.964 46.559C130.788 48.5023 130.611 50.3043 130.434 51.965L130.116 51.806L128.791 54.615L127.996 55.039L127.36 56.894L126.724 56.311L125.982 58.272H125.611C125.505 58.272 125.399 58.2897 125.293 58.325C125.187 58.3603 125.099 58.3957 125.028 58.431C124.852 58.537 124.64 58.749 124.392 59.067C124.357 58.7843 124.322 58.0777 124.286 56.947C124.286 55.8163 124.286 54.403 124.286 52.707C124.286 51.011 124.286 49.1207 124.286 47.036C124.286 44.916 124.269 42.7607 124.233 40.57C124.233 38.344 124.216 36.1533 124.18 33.998C124.18 31.8073 124.145 29.7933 124.074 27.956C124.004 26.0833 123.915 24.4757 123.809 23.133C123.703 21.7903 123.58 20.8187 123.438 20.218C123.615 20.1473 123.809 20.0767 124.021 20.006C124.445 19.8647 124.975 19.7763 125.611 19.741C126.353 19.423 127.131 19.211 127.943 19.105C128.791 18.9637 129.586 18.9813 130.328 19.158C131.106 19.3347 131.812 19.6703 132.448 20.165C133.084 20.6243 133.561 21.2957 133.879 22.179C134.515 24.0517 135.222 25.9773 135.999 27.956C136.777 29.8993 137.554 31.825 138.331 33.733C139.144 35.6057 139.921 37.4077 140.663 39.139C141.405 40.835 142.077 42.3367 142.677 43.644C142.854 41.1353 143.066 38.5207 143.313 35.8C143.561 33.0793 143.826 30.5 144.108 28.062C144.426 25.5887 144.727 23.398 145.009 21.49C145.292 19.582 145.557 18.1863 145.804 17.303C145.875 17.3737 145.928 17.6033 145.963 17.992C146.034 18.3807 146.105 18.6103 146.175 18.681C146.246 18.7517 146.317 18.6457 146.387 18.363C146.458 18.0803 146.529 17.9743 146.599 18.045C146.635 18.0803 146.688 18.204 146.758 18.416C146.829 18.628 146.882 18.8577 146.917 19.105C146.988 19.3523 147.059 19.5997 147.129 19.847C147.2 20.059 147.253 20.2003 147.288 20.271C147.394 20.377 147.589 20.43 147.871 20.43C148.013 20.43 148.136 20.4123 148.242 20.377C148.525 20.907 148.79 21.4547 149.037 22.02C149.249 22.5147 149.479 23.0623 149.726 23.663C149.974 24.2637 150.203 24.882 150.415 25.518C150.486 25.73 150.539 25.9067 150.574 26.048ZM191.883 20.324C194.533 20.43 197.236 20.589 199.992 20.801C202.784 20.9777 205.61 21.172 208.472 21.384C208.402 21.8787 208.243 22.4617 207.995 23.133C207.748 23.769 207.359 24.4227 206.829 25.094C206.335 25.73 205.681 26.3483 204.868 26.949C204.091 27.5497 203.119 28.0267 201.953 28.38C200.611 28.4507 199.321 28.5213 198.084 28.592C196.848 28.6273 195.664 28.6803 194.533 28.751C194.463 31.4363 194.321 34.1393 194.109 36.86C193.933 39.5453 193.738 42.001 193.526 44.227C193.279 46.8063 193.014 49.2797 192.731 51.647L191.565 54.244L191.141 54.191L190.293 56.099C190.258 56.0283 190.205 55.9753 190.134 55.94C189.993 55.8693 189.834 55.94 189.657 56.152C189.587 56.2227 189.481 56.4347 189.339 56.788C189.269 56.9293 189.216 57.0883 189.18 57.265H188.756L188.067 58.325L187.59 57C187.52 57.318 187.431 57.6183 187.325 57.901C187.255 58.1483 187.184 58.3603 187.113 58.537C187.043 58.749 186.972 58.855 186.901 58.855C186.866 58.5723 186.831 57.901 186.795 56.841C186.76 55.781 186.725 54.4737 186.689 52.919C186.689 51.329 186.672 49.5447 186.636 47.566C186.601 45.5873 186.566 43.5557 186.53 41.471C186.495 39.351 186.442 37.2487 186.371 35.164C186.336 33.044 186.283 31.0477 186.212 29.175C183.81 29.3163 181.919 29.4223 180.541 29.493C179.199 29.5637 178.298 29.6167 177.838 29.652C177.096 29.6873 176.46 29.493 175.93 29.069C175.436 28.645 175.047 28.115 174.764 27.479C174.482 26.8077 174.305 26.101 174.234 25.359C174.164 24.5817 174.199 23.8573 174.34 23.186C174.446 22.5147 174.658 21.9493 174.976 21.49C175.259 20.9953 175.648 20.7127 176.142 20.642C177.485 20.4653 178.951 20.3417 180.541 20.271C182.131 20.2003 183.827 20.165 185.629 20.165C185.841 19.953 186.036 19.8117 186.212 19.741C186.53 19.635 186.919 19.5467 187.378 19.476C187.838 19.4053 188.315 19.3877 188.809 19.423C189.339 19.423 189.852 19.4937 190.346 19.635C190.876 19.7763 191.389 20.006 191.883 20.324ZM236.998 22.073C237.245 22.815 237.298 23.8043 237.157 25.041C237.015 26.2777 236.803 28.0267 236.521 30.288C236.132 33.15 235.849 35.853 235.673 38.397C235.496 40.941 235.372 43.22 235.302 45.234C235.196 47.566 235.16 49.739 235.196 51.753L234.984 52.283L234.666 52.23L234.348 53.873L233.977 53.82L233.606 53.714L232.864 56.947L232.281 56.47L232.016 56.947L231.38 57L231.274 57.424C231.203 57.7067 231.115 57.848 231.009 57.848C230.938 57.8833 230.814 57.901 230.638 57.901C230.037 56.417 229.542 54.6857 229.154 52.707C228.8 50.693 228.518 48.5377 228.306 46.241C228.094 46.3823 227.864 46.4883 227.617 46.559C227.087 46.559 226.451 46.612 225.709 46.718C224.967 46.7887 224.172 46.8947 223.324 47.036C222.476 47.1773 221.61 47.3187 220.727 47.46C219.879 47.6013 219.084 47.7427 218.342 47.884C218.271 48.4847 218.218 49.0147 218.183 49.474C218.183 49.9333 218.165 50.3397 218.13 50.693C218.094 51.0817 218.077 51.435 218.077 51.753L217.706 51.276L217.441 52.654L216.805 52.813L216.116 54.827L214.579 55.781L213.678 57.053L213.201 56.735L212.777 58.166C212.706 58.272 212.618 58.378 212.512 58.484C212.3 58.696 212.158 58.802 212.088 58.802C212.052 58.5193 212.017 57.848 211.982 56.788C211.946 55.728 211.893 54.4207 211.823 52.866C211.787 51.276 211.752 49.4917 211.717 47.513C211.681 45.5343 211.628 43.5027 211.558 41.418C211.522 39.298 211.469 37.1957 211.399 35.111C211.328 32.991 211.24 31.0123 211.134 29.175C211.028 27.3377 210.922 25.7123 210.816 24.299C210.674 22.8503 210.533 21.7373 210.392 20.96C210.356 20.854 210.409 20.7127 210.551 20.536C210.657 20.324 210.851 20.1827 211.134 20.112C211.522 20.006 211.999 19.9 212.565 19.794C213.13 19.688 213.731 19.6527 214.367 19.688C215.003 19.7233 215.621 19.8823 216.222 20.165C216.858 20.4477 217.423 20.907 217.918 21.543C218.412 22.179 218.783 23.027 219.031 24.087C219.313 25.147 219.437 26.4897 219.402 28.115C219.331 30.1643 219.243 32.249 219.137 34.369C219.066 36.4537 218.978 38.4677 218.872 40.411C220.356 40.2343 221.875 40.146 223.43 40.146C225.02 40.1107 226.521 40.1637 227.935 40.305C227.829 38.2203 227.776 36.171 227.776 34.157C227.811 32.1077 227.846 30.2173 227.882 28.486C227.952 26.7193 228.041 25.147 228.147 23.769C228.288 22.391 228.412 21.331 228.518 20.589C229.083 20.3417 229.807 20.165 230.691 20.059C231.574 19.953 232.44 19.953 233.288 20.059C234.171 20.1297 234.948 20.324 235.62 20.642C236.326 20.96 236.786 21.437 236.998 22.073ZM241.738 33.362C241.703 31.5247 241.756 29.8817 241.897 28.433C242.074 26.949 242.268 25.6947 242.48 24.67C242.728 23.6453 242.975 22.8503 243.222 22.285C243.505 21.6843 243.717 21.3487 243.858 21.278C244.388 21.0307 245.024 20.9777 245.766 21.119C246.508 21.2603 247.197 21.49 247.833 21.808C248.469 22.126 248.999 22.4793 249.423 22.868C249.847 23.2567 250.024 23.5923 249.953 23.875C249.07 27.5497 248.628 30.5 248.628 32.726C248.664 34.9167 248.893 36.6127 249.317 37.814C249.741 39.0153 250.218 39.8103 250.748 40.199C251.314 40.5877 251.667 40.782 251.808 40.782C252.056 40.8173 252.444 40.6937 252.974 40.411C253.54 40.1283 254.087 39.6513 254.617 38.98C255.183 38.3087 255.66 37.443 256.048 36.383C256.472 35.323 256.684 34.0157 256.684 32.461C256.684 30.6237 256.596 29.1043 256.419 27.903C256.243 26.6663 256.048 25.6947 255.836 24.988C255.589 24.14 255.324 23.504 255.041 23.08L254.829 23.027C254.935 22.9917 255.024 22.9563 255.094 22.921C255.236 22.8503 255.289 22.762 255.253 22.656C255.218 22.6207 255.147 22.5677 255.041 22.497C254.971 22.4263 254.935 22.3557 254.935 22.285C254.935 22.2143 254.971 22.1083 255.041 21.967C255.112 21.7903 255.289 21.649 255.571 21.543C256.243 21.2603 257.002 21.2603 257.85 21.543C258.133 21.6137 258.416 21.7373 258.698 21.914C258.769 21.702 258.822 21.49 258.857 21.278C259.14 20.3947 259.264 19.4583 259.228 18.469C259.193 17.4797 259.087 16.5257 258.91 15.607C259.476 15.0417 260.112 14.7237 260.818 14.653C261.525 14.547 262.196 14.5823 262.832 14.759C263.468 14.9357 264.051 15.183 264.581 15.501C265.147 15.819 265.588 16.1017 265.906 16.349C266.083 16.5257 266.101 17.0203 265.959 17.833C265.853 18.6457 265.641 19.5643 265.323 20.589C265.005 21.5783 264.493 22.5677 263.786 23.557C263.15 24.4403 262.426 25.1647 261.613 25.73C261.79 26.1187 261.949 26.5427 262.09 27.002C262.62 28.5567 262.868 30.4823 262.832 32.779C262.797 34.7577 262.532 36.6303 262.037 38.397C261.578 40.1283 260.907 41.6477 260.023 42.955C259.14 44.2623 258.062 45.3047 256.79 46.082C255.554 46.824 254.176 47.1773 252.656 47.142C250.925 47.1067 249.388 46.6473 248.045 45.764C246.703 44.8453 245.572 43.7147 244.653 42.372C243.735 40.994 243.028 39.51 242.533 37.92C242.039 36.2947 241.774 34.7753 241.738 33.362ZM242.904 50.64C243.788 50.11 244.83 49.7037 246.031 49.421C247.268 49.103 248.54 48.9087 249.847 48.838C251.19 48.732 252.515 48.7143 253.822 48.785C255.165 48.8557 256.384 49.0147 257.479 49.262C258.61 49.474 259.564 49.7743 260.341 50.163C261.154 50.5163 261.684 50.9227 261.931 51.382H261.825C261.79 51.382 261.737 51.3643 261.666 51.329L262.355 52.177L261.931 52.283C262.073 52.495 262.214 52.6893 262.355 52.866C262.461 53.0427 262.55 53.2193 262.62 53.396C262.691 53.5727 262.709 53.6963 262.673 53.767C262.567 54.0143 262.444 54.4207 262.302 54.986C262.232 55.2687 262.161 55.569 262.09 55.887L261.613 55.622C260.235 55.4453 258.84 55.3923 257.426 55.463C256.048 55.5337 254.688 55.675 253.345 55.887C252.003 56.099 250.713 56.3817 249.476 56.735C248.24 57.053 247.074 57.3887 245.978 57.742C245.095 58.0247 244.371 57.9717 243.805 57.583C243.24 57.1943 242.816 56.629 242.533 55.887C242.286 55.145 242.18 54.297 242.215 53.343C242.286 52.389 242.516 51.488 242.904 50.64ZM308.989 53.396C309.095 53.5727 309.183 53.7493 309.254 53.926C309.36 54.0673 309.395 54.1733 309.36 54.244C309.289 54.35 309.218 54.5267 309.148 54.774C309.112 55.0213 309.059 55.2687 308.989 55.516C308.883 55.7987 308.794 56.099 308.724 56.417L308.247 56.205C306.833 55.993 305.402 55.9223 303.954 55.993C302.54 56.0637 301.145 56.2227 299.767 56.47C298.389 56.682 297.046 56.9647 295.739 57.318C294.467 57.6713 293.283 58.0247 292.188 58.378C291.269 58.6607 290.509 58.59 289.909 58.166C289.308 57.7773 288.866 57.1943 288.584 56.417C288.336 55.6397 288.23 54.774 288.266 53.82C288.336 52.8307 288.566 51.912 288.955 51.064L289.591 50.746C289.591 49.1207 289.591 47.354 289.591 45.446C289.626 43.538 289.644 41.5947 289.644 39.616C289.644 37.6373 289.626 35.6763 289.591 33.733C289.591 31.7897 289.555 29.9877 289.485 28.327C289.449 26.631 289.396 25.1117 289.326 23.769C289.255 22.4263 289.149 21.384 289.008 20.642C288.972 20.536 289.008 20.3947 289.114 20.218C289.255 20.006 289.467 19.8647 289.75 19.794C290.35 19.6527 291.128 19.5643 292.082 19.529C293.071 19.4937 294.007 19.7233 294.891 20.218C295.774 20.7127 296.516 21.5783 297.117 22.815C297.717 24.0517 297.947 25.889 297.806 28.327C297.7 30.4823 297.558 32.6023 297.382 34.687C297.205 36.7717 297.028 38.7327 296.852 40.57C296.675 42.4073 296.516 44.068 296.375 45.552C296.233 47.036 296.11 48.255 296.004 49.209C297.382 49.103 298.76 49.0853 300.138 49.156C301.516 49.2267 302.788 49.3857 303.954 49.633C305.12 49.845 306.109 50.1453 306.922 50.534C307.77 50.8873 308.335 51.3113 308.618 51.806C308.618 51.8767 308.582 51.8767 308.512 51.806C308.476 51.806 308.423 51.7883 308.353 51.753L309.042 52.654L308.565 52.76L308.989 53.396ZM314.392 44.969C314.322 44.7923 314.233 44.6333 314.127 44.492C314.057 44.3153 313.933 44.227 313.756 44.227C314.993 41.153 316.194 37.708 317.36 33.892C318.526 30.0407 319.41 25.6947 320.01 20.854C322.201 20.536 323.932 20.4123 325.204 20.483C326.476 20.5537 327.413 20.801 328.013 21.225C329.038 21.1897 329.974 21.4017 330.822 21.861C331.706 22.285 332.236 23.0977 332.412 24.299C332.518 25.147 332.713 26.366 332.995 27.956C333.278 29.5107 333.667 31.348 334.161 33.468C334.656 35.5527 335.257 37.867 335.963 40.411C336.705 42.9197 337.606 45.5697 338.666 48.361C338.666 48.361 338.525 48.2197 338.242 47.937L337.818 47.513L337.447 48.096L336.864 47.725L336.387 47.46L335.804 47.937C335.769 47.831 335.716 47.725 335.645 47.619C335.539 47.4777 335.433 47.2657 335.327 46.983C335.257 47.089 335.186 47.2657 335.115 47.513C335.045 47.725 334.956 47.9547 334.85 48.202C334.709 48.4847 334.585 48.7673 334.479 49.05L334.002 48.732C332.624 48.3433 331.211 48.096 329.762 47.99C328.349 47.8487 326.936 47.7957 325.522 47.831C324.144 47.8663 322.784 47.9723 321.441 48.149C320.134 48.3257 318.915 48.52 317.784 48.732C316.548 48.944 315.664 48.6613 315.134 47.884C314.604 47.0713 314.357 46.0997 314.392 44.969ZM322.925 40.146C324.021 40.2167 325.098 40.3403 326.158 40.517C327.254 40.6937 328.278 40.9233 329.232 41.206C328.632 39.8633 328.066 38.5207 327.536 37.178C327.042 35.8353 326.547 34.528 326.052 33.256C325.558 34.4927 325.045 35.6763 324.515 36.807C324.021 37.9377 323.491 39.0507 322.925 40.146ZM338.348 54.509C338.454 54.6857 338.543 54.8623 338.613 55.039C338.684 55.2157 338.702 55.3393 338.666 55.41C338.631 55.516 338.578 55.6927 338.507 55.94C338.472 56.152 338.419 56.3817 338.348 56.629C338.242 56.9117 338.154 57.2297 338.083 57.583L337.606 57.318C336.193 57.106 334.532 57.0177 332.624 57.053C330.752 57.0883 328.844 57.1943 326.9 57.371C324.992 57.583 323.173 57.848 321.441 58.166C319.71 58.484 318.297 58.8197 317.201 59.173C316.283 59.491 315.523 59.438 314.922 59.014C314.322 58.6253 313.88 58.0423 313.597 57.265C313.35 56.4877 313.244 55.6043 313.279 54.615C313.35 53.6257 313.58 52.707 313.968 51.859C314.887 51.329 316.071 50.9227 317.519 50.64C319.003 50.322 320.593 50.1277 322.289 50.057C323.985 49.9863 325.699 50.004 327.43 50.11C329.162 50.216 330.752 50.4103 332.2 50.693C333.684 50.9403 334.939 51.2583 335.963 51.647C336.988 52.0357 337.642 52.4597 337.924 52.919C337.96 52.9543 337.96 52.972 337.924 52.972C337.889 52.972 337.854 52.9543 337.818 52.919C337.748 52.919 337.695 52.9013 337.659 52.866L338.401 53.767L337.924 53.873L338.348 54.509ZM328.649 8.611C328.967 9.49433 329.444 10.36 330.08 11.208C330.752 12.0207 331.405 12.7627 332.041 13.434C332.713 14.07 333.296 14.6 333.79 15.024C334.285 15.4127 334.55 15.6247 334.585 15.66C334.833 16.2253 334.886 16.6847 334.744 17.038C334.603 17.3913 334.356 17.6917 334.002 17.939C333.684 18.1863 333.296 18.3807 332.836 18.522C332.377 18.628 331.9 18.7163 331.405 18.787C330.487 18.681 329.497 18.3453 328.437 17.78C327.589 17.3207 326.794 16.8083 326.052 16.243C325.346 16.8083 324.551 17.3207 323.667 17.78C322.643 18.3453 321.671 18.681 320.752 18.787C320.258 18.7163 319.781 18.628 319.321 18.522C318.862 18.3807 318.456 18.1863 318.102 17.939C317.784 17.6917 317.555 17.3913 317.413 17.038C317.272 16.6847 317.325 16.2253 317.572 15.66C317.608 15.6247 317.873 15.4127 318.367 15.024C318.862 14.6 319.427 14.07 320.063 13.434C320.735 12.7627 321.388 12.0207 322.024 11.208C322.696 10.36 323.19 9.49433 323.508 8.611C325.275 7.975 326.989 7.975 328.649 8.611ZM354.548 24.882C354.548 25.1293 354.424 25.8007 354.177 26.896C353.965 27.956 353.735 29.2987 353.488 30.924C353.241 32.514 353.029 34.2983 352.852 36.277C352.675 38.2203 352.622 40.199 352.693 42.213C352.799 44.227 353.082 46.1703 353.541 48.043C354.036 49.8803 354.813 51.5057 355.873 52.919C357.746 52.283 359.247 51.117 360.378 49.421C361.509 47.725 362.339 45.7817 362.869 43.591C363.399 41.4003 363.646 39.086 363.611 36.648C363.611 34.1747 363.399 31.8427 362.975 29.652C362.586 27.4613 362.039 25.5533 361.332 23.928C360.625 22.2673 359.83 21.1367 358.947 20.536L359.318 20.059C359.495 20.059 359.636 20.059 359.742 20.059C359.883 20.059 360.042 20.0767 360.219 20.112C360.219 20.112 360.413 20.271 360.802 20.589C361.226 20.907 361.703 21.3133 362.233 21.808C362.763 22.3027 363.293 22.8857 363.823 23.557C364.353 24.193 364.759 24.8643 365.042 25.571C364.795 24.723 364.441 23.9633 363.982 23.292C363.523 22.5853 363.063 22.0023 362.604 21.543C362.18 21.0483 361.809 20.6773 361.491 20.43C361.173 20.1473 361.032 20.006 361.067 20.006C362.798 20.3947 364.318 21.2427 365.625 22.55C366.968 23.8573 368.063 25.465 368.911 27.373C369.794 29.2457 370.448 31.3127 370.872 33.574C371.296 35.8353 371.49 38.1143 371.455 40.411C371.42 42.7077 371.155 44.9337 370.66 47.089C370.201 49.2443 369.476 51.1523 368.487 52.813C367.533 54.4383 366.332 55.728 364.883 56.682C363.47 57.636 361.791 58.06 359.848 57.954C357.269 57.848 355.078 57.3003 353.276 56.311C351.509 55.3217 350.025 54.1027 348.824 52.654C347.658 51.17 346.739 49.5623 346.068 47.831C345.432 46.0643 344.955 44.3507 344.637 42.69C344.319 40.994 344.125 39.4393 344.054 38.026C344.019 36.6127 344.001 35.5173 344.001 34.74C344.036 33.574 344.142 32.302 344.319 30.924C344.531 29.546 344.761 28.274 345.008 27.108C345.291 25.73 345.609 24.352 345.962 22.974C345.891 22.6913 345.838 22.444 345.803 22.232C345.768 22.0553 345.75 21.8787 345.75 21.702C345.75 21.5253 345.785 21.4017 345.856 21.331C346.209 21.013 346.863 20.801 347.817 20.695C348.806 20.589 349.796 20.6597 350.785 20.907C351.774 21.119 352.64 21.543 353.382 22.179C354.159 22.815 354.548 23.716 354.548 24.882Z" fill="#040404"/>
</svg>
